# xmcd CD database file
#
# Track frame offsets:
#	150
#	17466
#	34640
#	44904
#	66856
#	76521
#	89822
#	106069
#	125806
#	135919
#	152387
#	167701
#	181707
#	202328
#	213408
#
# Disc length: 3041 seconds
#
# Revision: 0
# Processed by: cddbd v1.5.2PL0 Copyright (c) Steve Scherf et al.
# Submitted via: CDex 1.51
#
DISCID=c40bdf0f
DTITLE=Ross Hammond - Flight
DYEAR=2015
DGENRE=Jazz
TTITLE0=Nobody Knows The Troubles I've Seen
TTITLE1=Womuts!
TTITLE2=Seven Years Later, I Still Remember You
TTITLE3=As The Seasons Come
TTITLE4=When Cows Face The Same Direction
TTITLE5=In The Garden
TTITLE6=The Praying Mantis
TTITLE7=For Miep Gies
TTITLE8=On The Rock Where Moses Stood
TTITLE9=The Jellyfish Reached The End Of The Journey
TTITLE10=The Coyotes Are Not As Far As You Think
TTITLE11=You Are My Sunshine
TTITLE12=Deep River
TTITLE13=The Ballad Of Red Cloud
TTITLE14=Alecia
EXTD=YEAR: 2015
EXTT0=
EXTT1=
EXTT2=
EXTT3=
EXTT4=
EXTT5=
EXTT6=
EXTT7=
EXTT8=
EXTT9=
EXTT10=
EXTT11=
EXTT12=
EXTT13=
EXTT14=
PLAYORDER=
